<?xml version="1.0" encoding="utf-8"?>
<!-- Generator: Adobe Illustrator 19.2.1, SVG Export Plug-In . SVG Version: 6.00 Build 0)  -->
<svg version="1.1" id="Layer_1" xmlns="http://www.w3.org/2000/svg" xmlns:xlink="http://www.w3.org/1999/xlink" x="0px" y="0px"
	 viewBox="0 0 260.3 106" style="enable-background:new 0 0 260.3 106;" xml:space="preserve">
<style type="text/css">
	.st0{fill:#0E2D6D;}
	.st1{fill:#FFFFFF;}
	.st2{fill:none;}
	.st3{enable-background:new    ;}
	.st4{fill:#231F20;}
</style>
<g>
	<rect class="st0" width="70" height="106"/>
	<g>
		<path class="st1" d="M17.6,50.1V6.9h9v16.5h16.8V6.9h9v43.2h-9V30.8H26.5v19.3H17.6z"/>
		<path class="st1" d="M17.5,55.9H27L44.1,86V55.9h8.4v43.2h-9L25.9,68.5v30.6h-8.4V55.9z"/>
	</g>
</g>
<rect x="75.4" y="23.1" class="st2" width="184.9" height="59.7"/>
<g class="st3">
	<path class="st4" d="M91.9,21.6c0-0.4-0.2-0.5-0.7-0.5v-0.5h4.6v0.5c-0.1,0-0.3,0-0.4,0.1c-0.1,0.1-0.2,0.2-0.2,0.4v13.6
		c0,0.2,0.1,0.3,0.2,0.4c0.1,0.1,0.2,0.1,0.4,0.1v0.5h-4.6v-0.5c0.4,0,0.7-0.2,0.7-0.5v-5.6h-9.7v5.6c0,0.2,0.1,0.3,0.2,0.4
		s0.2,0.1,0.4,0.1v0.5h-4.5v-0.5c0.4,0,0.6-0.2,0.6-0.5V21.6c0-0.4-0.2-0.5-0.6-0.5v-0.5h4.5v0.5c-0.1,0-0.3,0-0.4,0.1
		c-0.1,0.1-0.2,0.2-0.2,0.4v5.1h9.7V21.6z"/>
	<path class="st4" d="M99.2,35.8c0.2,0,0.4-0.2,0.6-0.3c0.1-0.2,0.3-0.4,0.3-0.5l4.5-9.8c0.1-0.3,0.2-0.5,0.3-0.7s0.1-0.3,0.1-0.5
		c0-0.1,0-0.2-0.1-0.2c-0.1,0-0.1-0.1-0.2-0.1v-0.5h4.5v0.5c-0.1,0-0.1,0.1-0.2,0.1c-0.1,0-0.1,0.1-0.1,0.2c0,0.1,0,0.3,0.1,0.4
		c0.1,0.2,0.2,0.4,0.3,0.6l4.9,10.2c0.1,0.2,0.2,0.3,0.3,0.4c0.1,0.1,0.2,0.1,0.4,0.2v0.5h-4.3v-0.5c0.1,0,0.2,0,0.3-0.1
		c0.1-0.1,0.2-0.2,0.2-0.3c0-0.1,0-0.2-0.1-0.3c0-0.1-0.1-0.2-0.1-0.4l-0.8-1.7h-6.4l-0.8,1.6c-0.1,0.2-0.1,0.3-0.2,0.4
		c-0.1,0.1-0.1,0.2-0.1,0.3c0,0.2,0,0.3,0.1,0.3s0.2,0.1,0.4,0.1v0.5h-4V35.8z M109.2,30.8l-2.4-5l-2.1,5H109.2z"/>
	<path class="st4" d="M122.1,23.1v0.5c-0.5,0-0.7,0.2-0.7,0.5v10h8.1c0.2,0,0.4-0.1,0.6-0.2c0.2-0.1,0.2-0.3,0.2-0.5h0.5v3.1h-0.5
		c0-0.2-0.1-0.2-0.2-0.3c-0.2,0-0.4,0-0.6,0h-11.8v-0.5c0.5,0,0.8-0.2,0.8-0.5V24.1c0-0.3-0.3-0.5-0.8-0.5v-0.5H122.1z"/>
</g>
<g class="st3">
	<path class="st4" d="M78.1,57.8c0.4,0,0.6-0.2,0.6-0.5V43.6c0-0.4-0.2-0.5-0.6-0.5v-0.5h5.1v0.5c-0.2,0-0.2,0.1-0.2,0.3
		c0,0.2,0.2,0.4,0.6,0.8l8.6,8.9v-9.5c0-0.4-0.3-0.5-0.8-0.5v-0.5H96v0.5c-0.4,0-0.6,0.2-0.6,0.5v13.6c0,0.4,0.2,0.5,0.6,0.5v0.5
		h-4.9v-0.5c0.3,0,0.4-0.1,0.4-0.3c0-0.1-0.2-0.4-0.5-0.7l-9.1-9.5v10c0,0.4,0.2,0.5,0.7,0.5v0.5h-4.4V57.8z"/>
	<path class="st4" d="M101.4,57.8c0.3,0,0.5,0,0.7-0.1c0.1-0.1,0.2-0.2,0.2-0.3V46.1c0-0.2-0.1-0.3-0.2-0.3
		c-0.1-0.1-0.3-0.1-0.7-0.1v-0.5h4.6v0.5c-0.6,0-0.8,0.2-0.8,0.5v11.2c0,0.3,0.3,0.5,0.8,0.5v0.5h-4.6V57.8z"/>
	<path class="st4" d="M121.6,48.9c0,0,0-0.1,0-0.1c0,0,0-0.1,0-0.2c0-0.1-0.1-0.2-0.3-0.4c-0.2-0.2-0.5-0.3-0.9-0.5
		c-0.4-0.2-0.8-0.3-1.3-0.4c-0.5-0.1-1-0.2-1.6-0.2c-0.7,0-1.4,0.1-2,0.3c-0.6,0.2-1.1,0.5-1.5,0.9c-0.4,0.4-0.8,0.8-1,1.4
		c-0.2,0.6-0.4,1.2-0.4,1.9c0,0.7,0.1,1.4,0.4,1.9c0.3,0.6,0.6,1.1,1.1,1.5c0.4,0.4,0.9,0.7,1.5,0.9c0.6,0.2,1.1,0.3,1.7,0.3
		c0.5,0,1.1-0.1,1.6-0.2c0.6-0.1,1.1-0.3,1.5-0.5c0.5-0.2,0.8-0.4,1.1-0.6c0.3-0.2,0.4-0.4,0.4-0.6v-0.2c0-0.1,0-0.2,0-0.3l0.3-0.3
		l2.2,3.2l-0.3,0.2c-0.2-0.1-0.4-0.2-0.5-0.2c-0.2,0-0.4,0.1-0.8,0.3c-0.4,0.2-0.8,0.4-1.4,0.6c-0.6,0.2-1.2,0.4-1.9,0.6
		c-0.7,0.2-1.5,0.2-2.4,0.2c-0.9,0-1.8-0.1-2.7-0.4s-1.7-0.7-2.4-1.2c-0.7-0.6-1.3-1.3-1.7-2.1c-0.4-0.8-0.7-1.8-0.7-3
		s0.2-2.1,0.7-2.9c0.4-0.8,1-1.5,1.7-2.1c0.7-0.6,1.5-1,2.5-1.3s1.9-0.4,2.9-0.4c0.8,0,1.5,0.1,2.1,0.2c0.6,0.1,1.2,0.3,1.7,0.5
		c0.5,0.2,0.9,0.3,1.2,0.5s0.5,0.2,0.7,0.2c0.1,0,0.2,0,0.3-0.1c0.1-0.1,0.1-0.1,0.2-0.2l0.4,0.2l-2,2.9L121.6,48.9z"/>
	<path class="st4" d="M131.4,57.3c0,0.2,0,0.3,0.1,0.3s0.2,0.1,0.3,0.1v0.5h-3.8v-0.5c0.1,0,0.2,0,0.3-0.1s0.1-0.2,0.1-0.3V46.1
		c0-0.2,0-0.3-0.1-0.3s-0.2-0.1-0.3-0.1v-0.5h3.8v0.5c-0.1,0-0.2,0-0.3,0.1s-0.1,0.2-0.1,0.3v4.2h8v-4.2c0-0.2,0-0.3-0.1-0.3
		s-0.2-0.1-0.3-0.1v-0.5h3.8v0.5c-0.1,0-0.2,0-0.3,0.1c-0.1,0.1-0.1,0.2-0.1,0.3v11.2c0,0.2,0,0.3,0.1,0.3c0.1,0.1,0.2,0.1,0.3,0.1
		v0.5H139v-0.5c0.1,0,0.2,0,0.3-0.1s0.1-0.2,0.1-0.3v-4.5h-8V57.3z"/>
	<path class="st4" d="M154.6,44.9c1.1,0,2.1,0.1,3.1,0.4c1,0.3,1.8,0.7,2.5,1.3c0.7,0.6,1.3,1.3,1.7,2.1c0.4,0.9,0.6,1.8,0.6,3
		c0,1.1-0.2,2.1-0.6,3c-0.4,0.9-1,1.6-1.7,2.1c-0.7,0.6-1.6,1-2.5,1.2c-1,0.2-2,0.4-3.1,0.4s-2.1-0.1-3.1-0.4
		c-1-0.2-1.8-0.7-2.5-1.2c-0.7-0.6-1.3-1.3-1.7-2.1c-0.4-0.8-0.6-1.8-0.6-3c0-1.1,0.2-2.1,0.6-3c0.4-0.8,1-1.6,1.7-2.1
		c0.7-0.6,1.6-1,2.5-1.3C152.4,45.1,153.5,44.9,154.6,44.9z M154.6,47.2c-0.6,0-1.3,0.1-1.9,0.3s-1.2,0.5-1.6,0.9
		c-0.5,0.4-0.9,0.9-1.2,1.4c-0.3,0.6-0.4,1.2-0.4,1.9c0,0.7,0.1,1.4,0.4,1.9c0.3,0.6,0.7,1,1.2,1.4c0.5,0.4,1,0.7,1.6,0.9
		c0.6,0.2,1.2,0.3,1.9,0.3c0.6,0,1.3-0.1,1.9-0.3c0.6-0.2,1.2-0.5,1.6-0.9c0.5-0.4,0.9-0.9,1.2-1.4c0.3-0.6,0.4-1.2,0.4-1.9
		c0-0.7-0.1-1.4-0.4-1.9c-0.3-0.6-0.7-1-1.2-1.4c-0.5-0.4-1-0.7-1.6-0.9S155.2,47.2,154.6,47.2z"/>
	<path class="st4" d="M170.4,45.1v0.5c-0.5,0-0.7,0.2-0.7,0.5v10h8.1c0.2,0,0.4-0.1,0.6-0.2s0.2-0.3,0.2-0.5h0.5v3.1h-0.5
		c0-0.2-0.1-0.2-0.2-0.3c-0.2,0-0.4,0-0.6,0H166v-0.5c0.5,0,0.8-0.2,0.8-0.5V46.1c0-0.3-0.3-0.5-0.8-0.5v-0.5H170.4z"/>
	<path class="st4" d="M183.8,53.7c0,0.1,0,0.2,0,0.3c0,0.1,0,0.2,0,0.3c0,0.3,0.2,0.6,0.6,0.8s0.8,0.5,1.4,0.6
		c0.5,0.2,1.1,0.3,1.6,0.4c0.5,0.1,0.9,0.2,1.2,0.2c0.3,0,0.6,0,1-0.1c0.4,0,0.8-0.1,1.2-0.3c0.4-0.1,0.7-0.3,1-0.5
		c0.3-0.2,0.4-0.5,0.4-0.9c0-0.4-0.2-0.8-0.7-1c-0.5-0.2-1.1-0.4-1.8-0.5c-0.7-0.1-1.5-0.2-2.4-0.3c-0.9-0.1-1.7-0.3-2.4-0.5
		c-0.7-0.2-1.4-0.6-1.8-1.1c-0.5-0.5-0.7-1.1-0.7-2c0-1.3,0.5-2.3,1.6-3.1c1.1-0.8,2.6-1.1,4.5-1.1c0.9,0,1.7,0.1,2.4,0.2
		c0.7,0.2,1.2,0.3,1.7,0.5s0.8,0.3,1.1,0.5s0.5,0.2,0.6,0.2c0.2,0,0.3,0,0.4-0.1s0.2-0.1,0.3-0.2l0.3,0.3l-1.5,2.8l-0.5-0.2
		c0-0.1,0-0.2-0.1-0.4c0-0.1-0.1-0.2-0.3-0.4c-0.4-0.3-1-0.6-1.9-0.9s-1.8-0.4-2.8-0.4c-0.4,0-0.8,0-1.1,0.1s-0.7,0.1-1,0.3
		c-0.3,0.1-0.5,0.3-0.7,0.5c-0.2,0.2-0.2,0.4-0.2,0.7c0,0.4,0.2,0.8,0.7,0.9s1.1,0.3,1.8,0.5c0.7,0.1,1.5,0.2,2.4,0.3
		c0.9,0.1,1.7,0.3,2.4,0.6c0.7,0.3,1.4,0.6,1.8,1.1c0.5,0.5,0.7,1.2,0.7,2.1c0,0.9-0.2,1.6-0.6,2.2c-0.4,0.6-1,1-1.6,1.3
		c-0.6,0.3-1.3,0.5-2.1,0.6c-0.8,0.1-1.5,0.1-2.2,0.1s-1.4-0.1-2-0.2c-0.7-0.1-1.3-0.3-1.8-0.4c-0.6-0.2-1-0.3-1.4-0.5
		c-0.4-0.1-0.6-0.2-0.7-0.2c-0.1,0-0.3,0.1-0.4,0.2l-0.4-0.3l1.4-3.4L183.8,53.7z"/>
</g>
<g class="st3">
	<path class="st4" d="M76,79.8c0.3,0,0.5-0.2,0.6-0.4s0.3-0.5,0.4-0.8L82.6,67c0.1-0.3,0.3-0.5,0.4-0.7c0.1-0.2,0.2-0.4,0.2-0.6
		c0-0.2-0.1-0.3-0.2-0.4c-0.1-0.1-0.3-0.1-0.5-0.2v-0.5h5.1v0.5c-0.1,0-0.3,0.1-0.4,0.2C87,65.3,87,65.5,87,65.7
		c0,0.2,0,0.3,0.1,0.5c0.1,0.2,0.2,0.4,0.3,0.6L93.6,79c0.1,0.2,0.2,0.4,0.4,0.5c0.2,0.1,0.4,0.2,0.6,0.3v0.5h-5.3v-0.5
		c0.1,0,0.2,0,0.3-0.1c0.1-0.1,0.2-0.2,0.2-0.3c0-0.2-0.1-0.5-0.2-0.8l-1.1-2.2h-7.3L80,78.6c-0.2,0.4-0.3,0.7-0.3,0.9
		c0,0.2,0.2,0.3,0.6,0.3v0.5H76V79.8z M87.3,74.2l-2.5-5.6L82,74.2H87.3z"/>
	<path class="st4" d="M98.7,75.7c0,0.1,0,0.2,0,0.3c0,0.1,0,0.2,0,0.3c0,0.3,0.2,0.6,0.6,0.8c0.4,0.2,0.8,0.5,1.4,0.6
		s1.1,0.3,1.6,0.4c0.5,0.1,0.9,0.2,1.2,0.2c0.3,0,0.6,0,1-0.1c0.4,0,0.8-0.1,1.2-0.3c0.4-0.1,0.7-0.3,1-0.5c0.3-0.2,0.4-0.5,0.4-0.9
		c0-0.4-0.2-0.8-0.7-1c-0.5-0.2-1.1-0.4-1.8-0.5c-0.7-0.1-1.5-0.2-2.4-0.3c-0.9-0.1-1.7-0.3-2.4-0.5c-0.7-0.2-1.4-0.6-1.8-1.1
		c-0.5-0.5-0.7-1.1-0.7-2c0-1.3,0.5-2.3,1.6-3.1c1.1-0.8,2.5-1.1,4.5-1.1c0.9,0,1.7,0.1,2.4,0.2c0.7,0.2,1.2,0.3,1.7,0.5
		c0.5,0.2,0.8,0.3,1.1,0.5c0.3,0.2,0.5,0.2,0.6,0.2c0.2,0,0.3,0,0.4-0.1c0.1,0,0.2-0.1,0.3-0.2l0.3,0.3l-1.5,2.8l-0.5-0.2
		c0-0.1,0-0.2-0.1-0.4s-0.1-0.2-0.3-0.4c-0.4-0.3-1-0.6-1.9-0.9s-1.8-0.4-2.8-0.4c-0.4,0-0.8,0-1.1,0.1s-0.7,0.1-1,0.3
		c-0.3,0.1-0.5,0.3-0.7,0.5c-0.2,0.2-0.2,0.4-0.2,0.7c0,0.4,0.2,0.8,0.7,0.9c0.5,0.2,1.1,0.3,1.8,0.5c0.7,0.1,1.5,0.2,2.4,0.3
		c0.9,0.1,1.7,0.3,2.4,0.6c0.7,0.3,1.4,0.6,1.8,1.1c0.5,0.5,0.7,1.2,0.7,2.1s-0.2,1.6-0.6,2.2c-0.4,0.6-1,1-1.6,1.3
		c-0.6,0.3-1.3,0.5-2.1,0.6c-0.8,0.1-1.5,0.1-2.2,0.1c-0.7,0-1.4-0.1-2-0.2c-0.7-0.1-1.3-0.3-1.8-0.4c-0.6-0.2-1-0.3-1.4-0.5
		c-0.4-0.1-0.6-0.2-0.7-0.2c-0.1,0-0.3,0.1-0.4,0.2l-0.4-0.3l1.4-3.4L98.7,75.7z"/>
	<path class="st4" d="M115.4,75.7c0,0.1,0,0.2,0,0.3c0,0.1,0,0.2,0,0.3c0,0.3,0.2,0.6,0.6,0.8c0.4,0.2,0.8,0.5,1.4,0.6
		s1.1,0.3,1.6,0.4c0.5,0.1,0.9,0.2,1.2,0.2c0.3,0,0.6,0,1-0.1c0.4,0,0.8-0.1,1.2-0.3c0.4-0.1,0.7-0.3,1-0.5c0.3-0.2,0.4-0.5,0.4-0.9
		c0-0.4-0.2-0.8-0.7-1c-0.5-0.2-1.1-0.4-1.8-0.5c-0.7-0.1-1.5-0.2-2.4-0.3c-0.9-0.1-1.7-0.3-2.4-0.5c-0.7-0.2-1.4-0.6-1.8-1.1
		c-0.5-0.5-0.7-1.1-0.7-2c0-1.3,0.5-2.3,1.6-3.1c1.1-0.8,2.5-1.1,4.5-1.1c0.9,0,1.7,0.1,2.4,0.2c0.7,0.2,1.2,0.3,1.7,0.5
		c0.5,0.2,0.8,0.3,1.1,0.5c0.3,0.2,0.5,0.2,0.6,0.2c0.2,0,0.3,0,0.4-0.1c0.1,0,0.2-0.1,0.3-0.2l0.3,0.3l-1.5,2.8l-0.5-0.2
		c0-0.1,0-0.2-0.1-0.4s-0.1-0.2-0.3-0.4c-0.4-0.3-1-0.6-1.9-0.9s-1.8-0.4-2.8-0.4c-0.4,0-0.8,0-1.1,0.1s-0.7,0.1-1,0.3
		c-0.3,0.1-0.5,0.3-0.7,0.5c-0.2,0.2-0.2,0.4-0.2,0.7c0,0.4,0.2,0.8,0.7,0.9c0.5,0.2,1.1,0.3,1.8,0.5c0.7,0.1,1.5,0.2,2.4,0.3
		c0.9,0.1,1.7,0.3,2.4,0.6c0.7,0.3,1.4,0.6,1.8,1.1c0.5,0.5,0.7,1.2,0.7,2.1s-0.2,1.6-0.6,2.2c-0.4,0.6-1,1-1.6,1.3
		c-0.6,0.3-1.3,0.5-2.1,0.6c-0.8,0.1-1.5,0.1-2.2,0.1c-0.7,0-1.4-0.1-2-0.2c-0.7-0.1-1.3-0.3-1.8-0.4c-0.6-0.2-1-0.3-1.4-0.5
		c-0.4-0.1-0.6-0.2-0.7-0.2c-0.1,0-0.3,0.1-0.4,0.2l-0.4-0.3l1.4-3.4L115.4,75.7z"/>
	<path class="st4" d="M137.9,66.9c1.1,0,2.1,0.1,3.1,0.4s1.8,0.7,2.5,1.3c0.7,0.6,1.3,1.3,1.7,2.1c0.4,0.9,0.6,1.8,0.6,3
		c0,1.1-0.2,2.1-0.6,3c-0.4,0.9-1,1.6-1.7,2.1c-0.7,0.6-1.6,1-2.5,1.2s-2,0.4-3.1,0.4c-1.1,0-2.1-0.1-3.1-0.4s-1.8-0.7-2.5-1.2
		c-0.7-0.6-1.3-1.3-1.7-2.1c-0.4-0.8-0.6-1.8-0.6-3c0-1.1,0.2-2.1,0.6-3c0.4-0.8,1-1.6,1.7-2.1c0.7-0.6,1.6-1,2.5-1.3
		S136.8,66.9,137.9,66.9z M137.9,69.2c-0.6,0-1.3,0.1-1.9,0.3c-0.6,0.2-1.2,0.5-1.6,0.9c-0.5,0.4-0.9,0.9-1.2,1.4
		c-0.3,0.6-0.4,1.2-0.4,1.9c0,0.7,0.1,1.4,0.4,1.9s0.7,1,1.2,1.4c0.5,0.4,1,0.7,1.6,0.9c0.6,0.2,1.2,0.3,1.9,0.3
		c0.6,0,1.3-0.1,1.9-0.3c0.6-0.2,1.2-0.5,1.6-0.9c0.5-0.4,0.9-0.9,1.2-1.4c0.3-0.6,0.4-1.2,0.4-1.9c0-0.7-0.1-1.4-0.4-1.9
		c-0.3-0.6-0.7-1-1.2-1.4c-0.5-0.4-1-0.7-1.6-0.9C139.2,69.3,138.6,69.2,137.9,69.2z"/>
	<path class="st4" d="M160,70.9c0,0,0-0.1,0-0.1c0,0,0-0.1,0-0.2c0-0.1-0.1-0.2-0.3-0.4s-0.5-0.3-0.9-0.5c-0.4-0.2-0.8-0.3-1.3-0.4
		c-0.5-0.1-1-0.2-1.6-0.2c-0.7,0-1.4,0.1-2,0.3c-0.6,0.2-1.1,0.5-1.5,0.9c-0.4,0.4-0.8,0.8-1,1.4c-0.2,0.6-0.4,1.2-0.4,1.9
		c0,0.7,0.1,1.4,0.4,1.9c0.3,0.6,0.6,1.1,1.1,1.5c0.4,0.4,0.9,0.7,1.5,0.9c0.6,0.2,1.1,0.3,1.7,0.3c0.5,0,1.1-0.1,1.6-0.2
		c0.6-0.1,1.1-0.3,1.5-0.5c0.5-0.2,0.8-0.4,1.1-0.6c0.3-0.2,0.4-0.4,0.4-0.6v-0.2c0-0.1,0-0.2,0-0.3l0.3-0.3l2.2,3.2l-0.3,0.2
		c-0.2-0.1-0.4-0.2-0.5-0.2c-0.2,0-0.4,0.1-0.8,0.3c-0.4,0.2-0.8,0.4-1.4,0.6c-0.5,0.2-1.2,0.4-1.9,0.6c-0.7,0.2-1.5,0.2-2.4,0.2
		c-0.9,0-1.8-0.1-2.7-0.4c-0.9-0.3-1.7-0.7-2.4-1.2s-1.3-1.3-1.7-2.1c-0.4-0.8-0.7-1.8-0.7-3s0.2-2.1,0.7-2.9c0.4-0.8,1-1.5,1.7-2.1
		c0.7-0.6,1.5-1,2.5-1.3c0.9-0.3,1.9-0.4,2.9-0.4c0.8,0,1.5,0.1,2.1,0.2s1.2,0.3,1.7,0.5c0.5,0.2,0.9,0.3,1.2,0.5
		c0.3,0.1,0.5,0.2,0.7,0.2c0.1,0,0.2,0,0.3-0.1c0.1-0.1,0.1-0.1,0.2-0.2l0.4,0.2l-2,2.9L160,70.9z"/>
	<path class="st4" d="M166.5,79.8c0.3,0,0.5,0,0.7-0.1s0.2-0.2,0.2-0.3V68.1c0-0.2-0.1-0.3-0.2-0.3s-0.3-0.1-0.7-0.1v-0.5h4.6v0.5
		c-0.6,0-0.8,0.2-0.8,0.5v11.2c0,0.3,0.3,0.5,0.8,0.5v0.5h-4.6V79.8z"/>
	<path class="st4" d="M174.2,79.8c0.2,0,0.4-0.2,0.6-0.3c0.1-0.2,0.3-0.4,0.3-0.5l4.5-9.8c0.1-0.3,0.2-0.5,0.3-0.7s0.1-0.3,0.1-0.5
		c0-0.1,0-0.2-0.1-0.2c0,0-0.1-0.1-0.2-0.1v-0.5h4.5v0.5c-0.1,0-0.1,0.1-0.2,0.1c-0.1,0-0.1,0.1-0.1,0.2c0,0.1,0,0.3,0.1,0.4
		s0.2,0.4,0.3,0.6l4.9,10.2c0.1,0.2,0.2,0.3,0.3,0.4s0.2,0.1,0.4,0.2v0.5h-4.3v-0.5c0.1,0,0.2,0,0.3-0.1c0.1-0.1,0.2-0.2,0.2-0.3
		c0-0.1,0-0.2-0.1-0.3c0-0.1-0.1-0.2-0.1-0.4l-0.8-1.7h-6.4l-0.8,1.6c-0.1,0.2-0.1,0.3-0.2,0.4c0,0.1-0.1,0.2-0.1,0.3
		c0,0.2,0,0.3,0.1,0.3c0.1,0,0.2,0.1,0.4,0.1v0.5h-4V79.8z M184.2,74.8l-2.4-5l-2.1,5H184.2z"/>
	<path class="st4" d="M196.1,79.8c0.1,0,0.2,0,0.3-0.1c0.1-0.1,0.1-0.2,0.1-0.3v-10h-3.9c-0.2,0-0.3,0-0.5,0.1
		c-0.1,0.1-0.2,0.2-0.2,0.4h-0.5v-3.5h0.5c0,0.3,0.1,0.5,0.2,0.6c0.1,0.1,0.3,0.1,0.5,0.1h10.7c0.2,0,0.3,0,0.5-0.1
		c0.1-0.1,0.2-0.3,0.2-0.6h0.5v3.5H204c0-0.2-0.1-0.3-0.2-0.4c-0.1-0.1-0.3-0.1-0.5-0.1h-3.9v10c0,0.3,0.2,0.5,0.5,0.5v0.5h-3.9
		V79.8z"/>
	<path class="st4" d="M219.5,69.9c0-0.4-0.3-0.6-0.9-0.6h-7.3v3h4.6c0.3,0,0.6,0,0.8-0.1s0.2-0.2,0.2-0.4h0.5V75h-0.6
		c0.1-0.2,0-0.4-0.2-0.4c-0.2,0-0.5-0.1-0.9-0.1h-4.4v3.5h7.7c0.2,0,0.4-0.1,0.6-0.2c0.2-0.1,0.2-0.3,0.2-0.4h0.5v3.2h-0.5
		c0-0.2-0.1-0.3-0.2-0.3c-0.2,0-0.4,0-0.6,0h-11v-0.5c0.1,0,0.2,0,0.3-0.1s0.2-0.2,0.2-0.3V68.1c0-0.2-0.1-0.3-0.2-0.3
		s-0.2-0.1-0.3-0.1v-0.5h10.7c0.6,0,0.9-0.2,0.9-0.5h0.5v3.3H219.5z"/>
	<path class="st4" d="M225.5,75.7c0,0.1,0,0.2,0,0.3c0,0.1,0,0.2,0,0.3c0,0.3,0.2,0.6,0.6,0.8s0.8,0.5,1.4,0.6
		c0.5,0.2,1.1,0.3,1.6,0.4c0.5,0.1,0.9,0.2,1.2,0.2c0.3,0,0.6,0,1-0.1c0.4,0,0.8-0.1,1.2-0.3c0.4-0.1,0.7-0.3,1-0.5
		c0.3-0.2,0.4-0.5,0.4-0.9c0-0.4-0.2-0.8-0.7-1c-0.5-0.2-1.1-0.4-1.8-0.5c-0.7-0.1-1.5-0.2-2.4-0.3c-0.9-0.1-1.7-0.3-2.4-0.5
		c-0.7-0.2-1.4-0.6-1.8-1.1c-0.5-0.5-0.7-1.1-0.7-2c0-1.3,0.5-2.3,1.6-3.1c1.1-0.8,2.6-1.1,4.5-1.1c0.9,0,1.7,0.1,2.4,0.2
		c0.7,0.2,1.2,0.3,1.7,0.5s0.8,0.3,1.1,0.5s0.5,0.2,0.6,0.2c0.2,0,0.3,0,0.4-0.1s0.2-0.1,0.3-0.2l0.3,0.3l-1.5,2.8l-0.5-0.2
		c0-0.1,0-0.2-0.1-0.4c0-0.1-0.1-0.2-0.3-0.4c-0.4-0.3-1-0.6-1.9-0.9s-1.8-0.4-2.8-0.4c-0.4,0-0.8,0-1.1,0.1s-0.7,0.1-1,0.3
		c-0.3,0.1-0.5,0.3-0.7,0.5c-0.2,0.2-0.2,0.4-0.2,0.7c0,0.4,0.2,0.8,0.7,0.9s1.1,0.3,1.8,0.5c0.7,0.1,1.5,0.2,2.4,0.3
		c0.9,0.1,1.7,0.3,2.4,0.6c0.7,0.3,1.4,0.6,1.8,1.1c0.5,0.5,0.7,1.2,0.7,2.1s-0.2,1.6-0.6,2.2c-0.4,0.6-1,1-1.6,1.3
		c-0.6,0.3-1.3,0.5-2.1,0.6c-0.8,0.1-1.5,0.1-2.2,0.1s-1.4-0.1-2-0.2c-0.7-0.1-1.3-0.3-1.8-0.4c-0.6-0.2-1-0.3-1.4-0.5
		c-0.4-0.1-0.6-0.2-0.7-0.2c-0.1,0-0.3,0.1-0.4,0.2l-0.4-0.3l1.4-3.4L225.5,75.7z"/>
</g>
<g class="st3">
	<path class="st4" d="M241.3,74.7c-0.1,0-0.2,0-0.2,0.1c0,0.1-0.1,0.1-0.1,0.2v4.6h3.7c0.3,0,0.4-0.1,0.4-0.3h0.1v1.3h-0.1
		c0-0.1-0.1-0.2-0.4-0.2h-4.9v-0.1c0.1,0,0.2,0,0.2-0.1s0.1-0.1,0.1-0.2v-5c0-0.1,0-0.1-0.1-0.2c0,0-0.1-0.1-0.2-0.1v-0.1h1.5V74.7z
		"/>
	<path class="st4" d="M248,74.7c-0.1,0-0.2,0-0.2,0.1c0,0.1-0.1,0.1-0.1,0.2v4.6h3.7c0.3,0,0.4-0.1,0.4-0.3h0.1v1.3h-0.1
		c0-0.1-0.1-0.2-0.4-0.2h-4.9v-0.1c0.1,0,0.2,0,0.2-0.1s0.1-0.1,0.1-0.2v-5c0-0.1,0-0.1-0.1-0.2c0,0-0.1-0.1-0.2-0.1v-0.1h1.5V74.7z
		"/>
	<path class="st4" d="M259.2,79.5c0-0.1-0.1-0.1-0.2-0.1c0,0-0.1,0-0.2,0.1c-0.1,0.1-0.3,0.2-0.5,0.3s-0.5,0.2-0.8,0.3
		c-0.3,0.1-0.7,0.1-1.2,0.1c-0.5,0-1-0.1-1.4-0.2c-0.4-0.1-0.8-0.4-1.1-0.6c-0.3-0.3-0.5-0.6-0.7-1c-0.2-0.4-0.3-0.8-0.3-1.2
		c0-0.4,0.1-0.7,0.2-1.1c0.2-0.3,0.4-0.6,0.7-0.9c0.3-0.3,0.7-0.5,1.1-0.6s0.9-0.2,1.4-0.2c0.4,0,0.7,0,1,0.1
		c0.3,0.1,0.5,0.1,0.7,0.2s0.4,0.1,0.5,0.2s0.2,0.1,0.3,0.1c0.1,0,0.1,0,0.1,0c0,0,0,0,0.1-0.1l0.1,0.1l-0.7,1.2l-0.1-0.1
		c0,0,0.1-0.1,0.1-0.1s-0.1-0.1-0.2-0.2s-0.3-0.2-0.5-0.3c-0.2-0.1-0.4-0.2-0.7-0.2c-0.3-0.1-0.5-0.1-0.8-0.1c-0.3,0-0.6,0-0.9,0.1
		c-0.3,0.1-0.6,0.2-0.8,0.4c-0.2,0.2-0.4,0.4-0.6,0.7c-0.1,0.3-0.2,0.6-0.2,1c0,0.3,0.1,0.6,0.2,0.9s0.4,0.5,0.6,0.7
		s0.5,0.4,0.9,0.5s0.6,0.2,1,0.2c0.3,0,0.5,0,0.8-0.1s0.4-0.2,0.6-0.3c0.2-0.1,0.3-0.2,0.4-0.3c0.1-0.1,0.2-0.2,0.2-0.3
		c0-0.1,0-0.1-0.1-0.2l0.1-0.1l0.8,1.1L259.2,79.5z"/>
</g>
</svg>
